<mxfile host="Electron" agent="Mozilla/5.0 (Windows NT 10.0; Win64; x64) AppleWebKit/537.36 (KHTML, like Gecko) draw.io/28.0.6 Chrome/138.0.7204.100 Electron/37.2.3 Safari/537.36" version="28.0.6">
  <diagram name="Page-1" id="H-HRBg1L7iBOneHxgdPA">
    <mxGraphModel dx="1042" dy="634" grid="1" gridSize="10" guides="1" tooltips="1" connect="1" arrows="1" fold="1" page="1" pageScale="1" pageWidth="850" pageHeight="1100" math="0" shadow="0">
      <root>
        <mxCell id="0" />
        <mxCell id="1" parent="0" />
        <mxCell id="_4ogjV2S70qeCIrHdmnf-1" value="mapThemesCollection.update(Theme{str}, MapThemeRecord{obj})" style="rounded=0;whiteSpace=wrap;html=1;" vertex="1" parent="1">
          <mxGeometry x="270" y="750" width="340" height="60" as="geometry" />
        </mxCell>
        <mxCell id="_4ogjV2S70qeCIrHdmnf-4" style="edgeStyle=orthogonalEdgeStyle;rounded=0;orthogonalLoop=1;jettySize=auto;html=1;entryX=0.141;entryY=0;entryDx=0;entryDy=0;entryPerimeter=0;" edge="1" parent="1">
          <mxGeometry relative="1" as="geometry">
            <mxPoint x="190" y="430" as="sourcePoint" />
            <mxPoint x="327.94000000000005" y="750" as="targetPoint" />
            <Array as="points">
              <mxPoint x="190" y="480" />
              <mxPoint x="328" y="480" />
            </Array>
          </mxGeometry>
        </mxCell>
        <mxCell id="_4ogjV2S70qeCIrHdmnf-6" value="Theme {str}" style="edgeLabel;html=1;align=center;verticalAlign=middle;resizable=0;points=[];" vertex="1" connectable="0" parent="_4ogjV2S70qeCIrHdmnf-4">
          <mxGeometry x="-0.3912" y="-2" relative="1" as="geometry">
            <mxPoint as="offset" />
          </mxGeometry>
        </mxCell>
        <mxCell id="_4ogjV2S70qeCIrHdmnf-9" style="edgeStyle=orthogonalEdgeStyle;rounded=0;orthogonalLoop=1;jettySize=auto;html=1;entryX=0;entryY=0.5;entryDx=0;entryDy=0;" edge="1" parent="1" source="_4ogjV2S70qeCIrHdmnf-2" target="_4ogjV2S70qeCIrHdmnf-3">
          <mxGeometry relative="1" as="geometry" />
        </mxCell>
        <mxCell id="_4ogjV2S70qeCIrHdmnf-13" value="Theme {str}" style="edgeLabel;html=1;align=center;verticalAlign=middle;resizable=0;points=[];" vertex="1" connectable="0" parent="_4ogjV2S70qeCIrHdmnf-9">
          <mxGeometry x="-0.2154" y="3" relative="1" as="geometry">
            <mxPoint as="offset" />
          </mxGeometry>
        </mxCell>
        <mxCell id="_4ogjV2S70qeCIrHdmnf-2" value="Select" style="rounded=0;whiteSpace=wrap;html=1;" vertex="1" parent="1">
          <mxGeometry x="130" y="370" width="120" height="60" as="geometry" />
        </mxCell>
        <mxCell id="_4ogjV2S70qeCIrHdmnf-5" style="edgeStyle=orthogonalEdgeStyle;rounded=0;orthogonalLoop=1;jettySize=auto;html=1;entryX=0.5;entryY=0;entryDx=0;entryDy=0;" edge="1" parent="1" source="_4ogjV2S70qeCIrHdmnf-3" target="_4ogjV2S70qeCIrHdmnf-25">
          <mxGeometry relative="1" as="geometry">
            <mxPoint x="530" y="570" as="targetPoint" />
            <Array as="points">
              <mxPoint x="525" y="590" />
            </Array>
          </mxGeometry>
        </mxCell>
        <mxCell id="_4ogjV2S70qeCIrHdmnf-7" value="mapThemeRecord{obj}" style="edgeLabel;html=1;align=center;verticalAlign=middle;resizable=0;points=[];" vertex="1" connectable="0" parent="_4ogjV2S70qeCIrHdmnf-5">
          <mxGeometry x="-0.5083" y="-2" relative="1" as="geometry">
            <mxPoint as="offset" />
          </mxGeometry>
        </mxCell>
        <mxCell id="_4ogjV2S70qeCIrHdmnf-3" value="mapThemesCollection.mapThemeState(Theme{str})" style="rounded=0;whiteSpace=wrap;html=1;" vertex="1" parent="1">
          <mxGeometry x="380" y="370" width="300" height="60" as="geometry" />
        </mxCell>
        <mxCell id="_4ogjV2S70qeCIrHdmnf-12" style="edgeStyle=orthogonalEdgeStyle;rounded=0;orthogonalLoop=1;jettySize=auto;html=1;entryX=0.5;entryY=0;entryDx=0;entryDy=0;" edge="1" parent="1" source="_4ogjV2S70qeCIrHdmnf-11" target="_4ogjV2S70qeCIrHdmnf-2">
          <mxGeometry relative="1" as="geometry" />
        </mxCell>
        <mxCell id="_4ogjV2S70qeCIrHdmnf-11" value="mapThemesCollection.mapThemes" style="rounded=0;whiteSpace=wrap;html=1;" vertex="1" parent="1">
          <mxGeometry x="40" y="200" width="300" height="60" as="geometry" />
        </mxCell>
        <mxCell id="_4ogjV2S70qeCIrHdmnf-22" style="edgeStyle=orthogonalEdgeStyle;rounded=0;orthogonalLoop=1;jettySize=auto;html=1;entryX=0.5;entryY=0;entryDx=0;entryDy=0;" edge="1" parent="1" source="_4ogjV2S70qeCIrHdmnf-14" target="_4ogjV2S70qeCIrHdmnf-20">
          <mxGeometry relative="1" as="geometry" />
        </mxCell>
        <mxCell id="_4ogjV2S70qeCIrHdmnf-24" value="QgisLayer {obj}" style="edgeLabel;html=1;align=center;verticalAlign=middle;resizable=0;points=[];" vertex="1" connectable="0" parent="_4ogjV2S70qeCIrHdmnf-22">
          <mxGeometry x="-0.0533" y="1" relative="1" as="geometry">
            <mxPoint as="offset" />
          </mxGeometry>
        </mxCell>
        <mxCell id="_4ogjV2S70qeCIrHdmnf-14" value="Select" style="rounded=0;whiteSpace=wrap;html=1;" vertex="1" parent="1">
          <mxGeometry x="540" y="130" width="120" height="60" as="geometry" />
        </mxCell>
        <mxCell id="_4ogjV2S70qeCIrHdmnf-18" style="edgeStyle=orthogonalEdgeStyle;rounded=0;orthogonalLoop=1;jettySize=auto;html=1;entryX=0.5;entryY=0;entryDx=0;entryDy=0;" edge="1" parent="1" source="_4ogjV2S70qeCIrHdmnf-16" target="_4ogjV2S70qeCIrHdmnf-14">
          <mxGeometry relative="1" as="geometry" />
        </mxCell>
        <mxCell id="_4ogjV2S70qeCIrHdmnf-23" value="dict" style="edgeLabel;html=1;align=center;verticalAlign=middle;resizable=0;points=[];" vertex="1" connectable="0" parent="_4ogjV2S70qeCIrHdmnf-18">
          <mxGeometry x="-0.1867" y="1" relative="1" as="geometry">
            <mxPoint as="offset" />
          </mxGeometry>
        </mxCell>
        <mxCell id="_4ogjV2S70qeCIrHdmnf-16" value="project.mapLayers" style="rounded=0;whiteSpace=wrap;html=1;" vertex="1" parent="1">
          <mxGeometry x="540" y="10" width="120" height="60" as="geometry" />
        </mxCell>
        <mxCell id="_4ogjV2S70qeCIrHdmnf-20" value="&lt;span style=&quot;text-align: left;&quot;&gt;QgsMapThemeCollection.MapThemeLayerRecord(layer)&lt;/span&gt;" style="rounded=0;whiteSpace=wrap;html=1;" vertex="1" parent="1">
          <mxGeometry x="445" y="250" width="310" height="60" as="geometry" />
        </mxCell>
        <mxCell id="_4ogjV2S70qeCIrHdmnf-25" value="mapThemeRecord.addLayerRecord(MapThemeLayerRecord{obj})" style="rounded=0;whiteSpace=wrap;html=1;" vertex="1" parent="1">
          <mxGeometry x="380" y="530" width="370" height="60" as="geometry" />
        </mxCell>
        <mxCell id="_4ogjV2S70qeCIrHdmnf-26" style="edgeStyle=orthogonalEdgeStyle;rounded=0;orthogonalLoop=1;jettySize=auto;html=1;entryX=0.729;entryY=0.04;entryDx=0;entryDy=0;entryPerimeter=0;" edge="1" parent="1" source="_4ogjV2S70qeCIrHdmnf-20" target="_4ogjV2S70qeCIrHdmnf-25">
          <mxGeometry relative="1" as="geometry">
            <Array as="points">
              <mxPoint x="720" y="490" />
              <mxPoint x="650" y="490" />
            </Array>
          </mxGeometry>
        </mxCell>
        <mxCell id="_4ogjV2S70qeCIrHdmnf-27" value="&lt;span style=&quot;font-size: 12px; text-wrap-mode: wrap; background-color: rgb(27, 29, 30);&quot;&gt;MapThemeLayerRecord{obj}&lt;/span&gt;" style="edgeLabel;html=1;align=center;verticalAlign=middle;resizable=0;points=[];" vertex="1" connectable="0" parent="_4ogjV2S70qeCIrHdmnf-26">
          <mxGeometry x="-0.2768" relative="1" as="geometry">
            <mxPoint y="34" as="offset" />
          </mxGeometry>
        </mxCell>
        <mxCell id="_4ogjV2S70qeCIrHdmnf-28" style="edgeStyle=orthogonalEdgeStyle;rounded=0;orthogonalLoop=1;jettySize=auto;html=1;entryX=0.763;entryY=0.05;entryDx=0;entryDy=0;entryPerimeter=0;" edge="1" parent="1" source="_4ogjV2S70qeCIrHdmnf-25" target="_4ogjV2S70qeCIrHdmnf-1">
          <mxGeometry relative="1" as="geometry" />
        </mxCell>
      </root>
    </mxGraphModel>
  </diagram>
</mxfile>
